<svg xmlns="http://www.w3.org/2000/svg" viewBox="0 0 162.78 146.85"><defs><style>.cls-1{fill:#daf98f;opacity:0.5;}.cls-2{fill:#343f04;}</style></defs><title>face-3</title><g id="Capa_2" data-name="Capa 2"><g id="Capa_3" data-name="Capa 3"><ellipse class="cls-1" cx="80.1" cy="79.21" rx="71.33" ry="66.03"/></g><g id="Objects"><path class="cls-2" d="M159.92,56.92a68.6,68.6,0,0,0-12-22.53,84.44,84.44,0,0,0-9.2-10c5-3.37,13.71-.65,19.17-1.63,1.9-.34,1.09-3.23-.8-2.89-6,1.08-14.15-1.43-19.6,1.69a18,18,0,0,1,15.25-8.75,1.5,1.5,0,0,0,0-3,21,21,0,0,0-12.61,4.4,49.85,49.85,0,0,0,1.45-9.81c.13-1.93-2.87-1.92-3,0-.4,5.94-1.11,11.52-4.64,15.92l-.1-.08c2.71-7.06,1.7-16.53-4.93-20-1.71-.9-3.23,1.69-1.51,2.59,5,2.64,5.74,9.9,3.86,15.57q-1.37-.91-2.81-1.76C111.28,6.8,90.52,4.69,71.2,7.42a95.79,95.79,0,0,0-14,1.81A73.88,73.88,0,0,0,40,14.34a53.66,53.66,0,0,0-14.3,10.2A106.06,106.06,0,0,0,14.23,37,68.2,68.2,0,0,0,1.12,65.85,55.3,55.3,0,0,0,.25,78.37a69.84,69.84,0,0,0,.86,18.31A56.9,56.9,0,0,0,13.43,123c6.88,8.22,16.29,14,26.21,17.83,13.73,5.26,29,6.6,43.91,5.41l1.76.2A71.83,71.83,0,0,0,119,142.23a65.06,65.06,0,0,0,25.5-18.34,61.25,61.25,0,0,0,8.45-13q1.56-2.51,2.91-5.14A66,66,0,0,0,159.92,56.92ZM127.38,18.38c1,.61,2.06,1.27,3.07,1.94a13.65,13.65,0,0,1-1.31,2.19A77.13,77.13,0,0,0,102.4,11.89c-.89-.28-1.78-.55-2.67-.81A96.36,96.36,0,0,0,87,8.32C101.09,8.38,115.25,11.46,127.38,18.38ZM32,21.72a48.12,48.12,0,0,1,17-8.5l.08,0q-3.73,1.49-7.32,3.3a103.17,103.17,0,0,0-13.26,8.43l-1.3,1C28.81,24.44,30.4,23,32,21.72Zm-19.79,24C17.88,34.83,27.81,27.41,38,21.06A84.67,84.67,0,0,1,65.63,10.48q2.5-.52,5.05-.92a81.68,81.68,0,0,1,9.3.08q2,.13,4,.36c-3.2,0-6.38.09-9.53.35A86.34,86.34,0,0,0,46.8,17.14c-10.12,4.44-20.6,10.72-27.46,19.52A76.5,76.5,0,0,0,10.58,52,85.43,85.43,0,0,0,5.23,66.64a64.86,64.86,0,0,0-1.9,19.91,51.51,51.51,0,0,1-1-8A89.58,89.58,0,0,1,12.26,45.69Zm46.16,97.73c-22-3.05-43.18-14.65-52-35.87a57.41,57.41,0,0,1-4-16.2,50.78,50.78,0,0,0,1.9,5.28c.35.83.73,1.66,1.13,2.47,5.73,19.9,22.92,33.23,42.29,39.25a90.09,90.09,0,0,0,13.58,3q5.62,1.78,11.39,3A109.26,109.26,0,0,1,58.42,143.42ZM13,111a75.29,75.29,0,0,0,10.25,10.51,96,96,0,0,0,23.14,14.16c-1.69-.56-3.37-1.16-5-1.83-10.53-4.25-20.2-11.16-26.8-20.48C14,112.62,13.48,111.83,13,111Zm112.23,26a64.05,64.05,0,0,1-29.53,7.74c3.25-.55,6.46-1.2,9.61-1.95a86.15,86.15,0,0,0,30.19-13.17c.79-.57,1.57-1.16,2.33-1.76A65.17,65.17,0,0,1,125.21,137Zm26-27.45a66.87,66.87,0,0,1-25.84,23.77c-10.15,5.26-21.46,8.14-32.74,9.73-3.27.46-6.58.82-9.89,1.06-3-.38-6.08-.9-9.09-1.55q3.47.15,6.95.15a108.66,108.66,0,0,0,33.59-4.92,64.52,64.52,0,0,0,41.1-39.37A64.63,64.63,0,0,1,151.23,109.54Zm3.69-16.94a60.79,60.79,0,0,1-16.51,28.46c-8.13,8-18.41,13.11-29.34,16.09-11.22,3.05-23,3.8-34.58,3.36a116.14,116.14,0,0,1-12.79-1.18q-3-1-5.95-2a104.7,104.7,0,0,1-29.57-16A67.48,67.48,0,0,1,7.49,98.56,57.6,57.6,0,0,1,5.29,84C5,73.16,7.93,62.84,12.37,53.08A74.14,74.14,0,0,1,21.71,37c3.88-4.81,8.93-8.47,14.18-11.65A87.54,87.54,0,0,1,64,13.91a96.88,96.88,0,0,1,30.6-1.14q3.79.44,7.55,1.21,3.36,1.08,6.64,2.36c14.12,5.54,27.48,14.51,36.5,26.86a67.22,67.22,0,0,1,11.11,28A62.58,62.58,0,0,1,154.93,92.6Zm3.68.16a67.57,67.57,0,0,0,.78-7.05A62.49,62.49,0,0,0,158.56,72a64.76,64.76,0,0,0-3.74-16.43,70.76,70.76,0,0,0-18.93-27.87,1.48,1.48,0,0,0,.34-.44,7.85,7.85,0,0,1,1-1.52,78.24,78.24,0,0,1,15.24,19.07,64.44,64.44,0,0,1,8.22,34.72A59.88,59.88,0,0,1,158.61,92.76Z"/><path class="cls-2" d="M67.19,49.77c-3.53,3.58-7,6.8-11.75,8.75-4.4,1.81-9.35,2.27-14,2.77-1.9.2-1.92,3.2,0,3a78.55,78.55,0,0,0,11.63-1.92A7.35,7.35,0,0,0,58.68,72c5.53,1.09,6.9-6,5-9.83A6.73,6.73,0,0,0,60.6,59.3a47.61,47.61,0,0,0,8.71-7.4C70.67,50.52,68.55,48.39,67.19,49.77Z"/><path class="cls-2" d="M119.42,52.54c-7.26-.3-16.53-.24-21.63-6.17-1.26-1.47-3.38.66-2.12,2.12a17.59,17.59,0,0,0,8.4,5.2,11.39,11.39,0,0,0-.78,1.24,8.22,8.22,0,0,0-.7,5.66c.83,4.08,5.59,6,9.25,4.64s5-5.89,3.41-9.29a5,5,0,0,0-.34-.61c1.54.08,3.06.14,4.51.2C121.36,55.62,121.35,52.62,119.42,52.54Z"/><path class="cls-2" d="M120.66,85.56c-.18.53-5.38-.55-6.46,1.57a16.1,16.1,0,0,0-1.3,4.19c-.89,4.2-6.11,1.91-8.72,1.42-2.89-.54-5.65,1.23-7.25,3.52s-2.54,4.53-4.15,6.59c-2.88,3.68-6.49.53-9-1.6-6.6-5.62-10.47.65-16.71,2.87-4.44,1.58-8.27-8.5-11.63-10.59a6,6,0,0,0-7.26,1c-1.43,1.3.69,3.42,2.12,2.12,4.73-4.3,8.37,7.31,11.66,9.26,2.9,1.72,5.35,1.57,8.32.07,1.75-.88,3.29-2.26,5-3.29,3.29-2,5.85.16,8.22,2.23S88,108,91.11,107.52c3.37-.48,5.52-4.88,6.93-7.46,2.12-3.89,5.36-4.61,9.4-3.37a9.05,9.05,0,0,0,4.94,0c2.83-.66,3.36-4.42,3.86-6.68.44-2,4.17-.67,5.46-1.42a3.14,3.14,0,0,0,1.85-2.25C124.2,84.53,121.3,83.75,120.66,85.56Z"/><path class="cls-2" d="M122.55,70.46a15.8,15.8,0,0,0-4.19.7,13.64,13.64,0,0,0-8.3,4.26A1.51,1.51,0,0,0,111.13,78a21.9,21.9,0,0,0,12.49-5A1.51,1.51,0,0,0,122.55,70.46Z"/><path class="cls-2" d="M56.74,78.19c-1.24-2.23-4.26-1.79-6.41-1.66A17,17,0,0,0,46.5,77,6.19,6.19,0,0,0,42,79.69c-.7,1,.26,2.17,1.3,2.26C45,82.08,59.31,82.81,56.74,78.19Z"/></g></g></svg>