<svg xmlns="http://www.w3.org/2000/svg" viewBox="0 0 162.78 154.57"><defs><style>.cls-1{fill:#daf98f;opacity:0.2;}.cls-2{fill:#343f04;}</style></defs><title>face-2</title><g id="Capa_2" data-name="Capa 2"><g id="Capa_3" data-name="Capa 3"><ellipse class="cls-1" cx="83.94" cy="86.41" rx="71.33" ry="66.03"/></g><g id="Objects"><path class="cls-2" d="M159.92,64.63a68.6,68.6,0,0,0-12-22.53,71.59,71.59,0,0,0-17.44-16.52c3.48-.18,9.05-2,11.63.44,1.4,1.33,3.52-.78,2.12-2.12-3-2.86-6.42-2.25-10.2-1.5-2.67.53-5.34.13-8,.62l-1.72-.85A20.88,20.88,0,0,1,129,19c1.68-.88,12.82-4.88,12.91-6.49-.1,1.93,2.9,1.92,3,0l0-.37a1.5,1.5,0,0,0-.74-1.3c-3.73-2.25-10.35,2.55-13.56,4.07a33.29,33.29,0,0,0-8.36,5.19,20.21,20.21,0,0,1,4.28-6.32c3.89-3.85,9.61-6.44,14.63-8.43,1.78-.7,1-3.61-.8-2.89a60.23,60.23,0,0,0-14.87,8.26A20.74,20.74,0,0,0,119,19.84c-.49-.19-1-.39-1.46-.57,0-1.55,0-3.1,0-4.65.08-3.75-.34-9.86,3.61-11.86,1.73-.87.21-3.46-1.51-2.59-2.9,1.47-4.15,4.24-4.56,7.39a76,76,0,0,0-.56,10.65c-13.86-4.46-29-5.11-43.32-3.09a95.82,95.82,0,0,0-14,1.81A73.88,73.88,0,0,0,40,22.06a53.66,53.66,0,0,0-14.3,10.2A106.06,106.06,0,0,0,14.23,44.74,68.2,68.2,0,0,0,1.12,73.56,55.3,55.3,0,0,0,.25,86.08a69.84,69.84,0,0,0,.86,18.31A56.9,56.9,0,0,0,13.43,130.7c6.88,8.22,16.29,14,26.21,17.83,13.73,5.26,29,6.6,43.91,5.41l1.76.2A71.83,71.83,0,0,0,119,149.94a65.06,65.06,0,0,0,25.5-18.34,61.25,61.25,0,0,0,8.45-13q1.56-2.51,2.91-5.14A66,66,0,0,0,159.92,64.63ZM122.8,23.74l.54.26c-.48.28-.95.59-1.41.92C122.21,24.51,122.5,24.12,122.8,23.74Zm-4.48-2c-.2.61-.39,1.24-.56,1.86,0-.71-.09-1.43-.13-2.14Zm-3.74-1.37q0,1.33.13,2.66a84.33,84.33,0,0,0-12.3-3.47c-.89-.28-1.78-.55-2.67-.81A96.38,96.38,0,0,0,87,16,88.4,88.4,0,0,1,114.58,20.41ZM32,29.44a48.12,48.12,0,0,1,17-8.5l.08,0q-3.73,1.49-7.32,3.3a103.17,103.17,0,0,0-13.26,8.43l-1.3,1C28.81,32.16,30.4,30.76,32,29.44Zm-19.79,24C17.88,42.54,27.81,35.12,38,28.77A84.67,84.67,0,0,1,65.63,18.2q2.5-.52,5.05-.92a81.68,81.68,0,0,1,9.3.08q2,.13,4,.36c-3.2,0-6.38.09-9.53.35A86.34,86.34,0,0,0,46.8,24.85c-10.12,4.44-20.6,10.72-27.46,19.52a76.5,76.5,0,0,0-8.76,15.37A85.44,85.44,0,0,0,5.23,74.36a64.86,64.86,0,0,0-1.9,19.91,51.51,51.51,0,0,1-1-8A89.58,89.58,0,0,1,12.26,53.4Zm46.16,97.73c-22-3.05-43.18-14.65-52-35.87a57.41,57.41,0,0,1-4-16.2,50.78,50.78,0,0,0,1.9,5.28c.35.83.73,1.66,1.13,2.47,5.73,19.9,22.92,33.23,42.29,39.25a90.06,90.06,0,0,0,13.58,3q5.62,1.78,11.39,3A109.26,109.26,0,0,1,58.42,151.14ZM13,118.75a75.29,75.29,0,0,0,10.25,10.51,96,96,0,0,0,23.14,14.16c-1.69-.56-3.37-1.16-5-1.83-10.53-4.25-20.2-11.16-26.8-20.48C14,120.33,13.48,119.54,13,118.75Zm112.23,26a64.05,64.05,0,0,1-29.53,7.74c3.25-.55,6.46-1.2,9.61-1.95a86.15,86.15,0,0,0,30.19-13.17c.79-.57,1.57-1.16,2.33-1.76A65.18,65.18,0,0,1,125.21,144.7Zm26-27.45A66.87,66.87,0,0,1,125.39,141c-10.15,5.26-21.46,8.14-32.74,9.73-3.27.46-6.58.82-9.89,1.06-3-.38-6.08-.9-9.09-1.55q3.47.15,6.95.15a108.66,108.66,0,0,0,33.59-4.92,64.52,64.52,0,0,0,41.1-39.37A64.62,64.62,0,0,1,151.23,117.25Zm3.69-16.94a60.79,60.79,0,0,1-16.51,28.46c-8.13,8-18.41,13.11-29.34,16.09-11.22,3.05-23,3.8-34.58,3.36A116.15,116.15,0,0,1,61.7,147q-3-1-5.95-2a104.7,104.7,0,0,1-29.57-16A67.48,67.48,0,0,1,7.49,106.28a57.59,57.59,0,0,1-2.2-14.59C5,80.88,7.93,70.56,12.37,60.8a74.14,74.14,0,0,1,9.34-16.08c3.88-4.81,8.93-8.47,14.18-11.65A87.54,87.54,0,0,1,64,21.63a96.88,96.88,0,0,1,30.6-1.14q3.79.44,7.55,1.21,3.36,1.08,6.64,2.36c2.14.84,4.26,1.77,6.36,2.77a1.66,1.66,0,0,0,1.59.77q1.08.54,2.14,1.11a1.54,1.54,0,0,0,1.26.69,76.91,76.91,0,0,1,25.15,21.53,67.22,67.22,0,0,1,11.11,28A62.58,62.58,0,0,1,154.93,100.31Zm3.68.16a67.58,67.58,0,0,0,.78-7.05,62.49,62.49,0,0,0-.83-13.74,64.76,64.76,0,0,0-3.74-16.43c-4.55-12.27-13-24-23.59-31.65a65.38,65.38,0,0,0-7-4.29,13.93,13.93,0,0,1,3-1.32l.17.09c10.57,6.18,19,15.84,25.08,26.39a64.44,64.44,0,0,1,8.22,34.72A59.88,59.88,0,0,1,158.61,100.47Z"/><path class="cls-2" d="M63.86,80.15a12.51,12.51,0,0,0-5.19-8.73,2.76,2.76,0,0,0-4,1.65c-.52,3.08-1.06,8.36.33,12.06.13.74.25,1.49.45,2.23.78,3,4.32,6.27,7.21,3.11C65,87.82,64.42,83.44,63.86,80.15Z"/><path class="cls-2" d="M103.86,81.53a8.06,8.06,0,0,0-1.17-5.77l-.07-.08a11.66,11.66,0,0,0-1-1.65,1.62,1.62,0,0,0-2.19-.45,1.19,1.19,0,0,0-.82,1.35c0,.16,0,.32,0,.49-.48,2.94,0,7.41,3.13,8.21a1.52,1.52,0,0,0,1.85-1c0-.07,0-.14.05-.2a1.68,1.68,0,0,0,.19-.68C103.86,81.64,103.86,81.58,103.86,81.53Z"/><path class="cls-2" d="M116.95,120.42c-7.47-8-14.47-18.82-32.83-17.05C67.05,105,58.57,114.71,56.2,124.3c-.29,1.15,2.6,1.65,2.89.49,2.08-8.38,8.57-17,23.06-19.35,7.41-1.21,15,.13,20.11,3.57s8.36,8.33,12.1,12.33C115.31,122.37,117.9,121.44,116.95,120.42Z"/></g></g></svg>