<svg xmlns="http://www.w3.org/2000/svg" viewBox="0 0 152.8 159.43"><defs><style>.cls-1{fill:#daf98f;opacity:0.8;}.cls-2{fill:#343f04;}</style></defs><title>face-9_1</title><g id="Capa_2" data-name="Capa 2"><g id="Capa_3" data-name="Capa 3"><ellipse class="cls-1" cx="75.86" cy="85.39" rx="71.33" ry="66.03"/></g><g id="Objects"><path class="cls-2" d="M152.66,83.72c-.43-6-1.17-12.21-3.59-17.8-.58-1.33-1.21-2.64-1.89-3.92A69.47,69.47,0,0,0,137,42.91,58.73,58.73,0,0,0,125.6,31.05c2.42.17,5-.18,7.13-.2a1.41,1.41,0,0,0,1-.36,12.43,12.43,0,0,0,2-.36,1.52,1.52,0,0,0,.9-2.2c-2.21-4.65-7.31-5.45-12.2-5a46.39,46.39,0,0,0,11.34-13.3,1.52,1.52,0,0,0-.9-2.2c-7.18-2.47-11.94,2.62-15.51,8.37q.27-5.34.14-10.71c-.08-2.94-1.23-4.82-4.18-5.1C110.87-.4,111,6.72,112,13.64c-2.58-4.91-5.72-9.08-8.19-7.2-2.3,1.76-2.2,3.68-.69,6.08a85.54,85.54,0,0,0,9,11.44l-2-.85a57.15,57.15,0,0,0-16.59-4.25A62.56,62.56,0,0,0,81.82,19a85.71,85.71,0,0,0-35,2.28A57.69,57.69,0,0,0,21.25,35.65,73.94,73.94,0,0,0,4.57,61.3a69.75,69.75,0,0,0-1.16,46.36c.11.4.21.8.32,1.2,5.71,20.07,21.08,37.95,41.14,44.47a71.24,71.24,0,0,0,22.25,3.28,76.39,76.39,0,0,0,21.4,2.79,60.39,60.39,0,0,0,25.92-6.73c10.94-5.61,19.82-14.62,26.42-24.9A72.51,72.51,0,0,0,152.66,83.72ZM115,27.51A50.6,50.6,0,0,1,126,34a57.51,57.51,0,0,1,9.14,10q1.46,1.94,2.77,4a58.3,58.3,0,0,0-14.48-12.72c-2-1.34-4-2.61-6-3.83a49.26,49.26,0,0,0-11.09-5A108.23,108.23,0,0,0,90.64,20.8C99.27,21.08,107.21,24,115,27.51Zm24.39,29.2a65.32,65.32,0,0,1,6.76,34.58A71,71,0,0,1,139,118C130.5,135,114.46,145.66,96,148.7c-18.33,3-38.87,3.2-56.15-4.57a92.5,92.5,0,0,1-13.55-8.67C12.67,123.38,5.36,104.26,6,86.29c.37-10.35,3.17-21.24,8.58-30.11C20.45,46.53,30,39.31,39.87,34.07a77.88,77.88,0,0,1,35.44-8.84c10.08-.17,20.73,0,30.46,3.09,5,2.19,9.79,4.7,14.4,7.31.59.33,1.16.67,1.73,1,1.58,1.11,3.13,2.25,4.62,3.41C132.27,44.51,136.1,50.3,139.39,56.71ZM81.71,21.11q2.25.33,4.48.77a81.29,81.29,0,0,1,7.9,2c-2.26-.26-4.54-.43-6.84-.54C75.6,22.83,64.2,23.17,53,26.45l.22-.08a113.45,113.45,0,0,1,19-4.08C75.37,21.82,78.54,21.39,81.71,21.11ZM21.14,38.79C28.27,31,37.36,26.15,47.43,23.3a81.92,81.92,0,0,1,24.18-3c-10.3,1.55-20.34,3.88-29.8,8.52A84,84,0,0,0,15.65,49.09,59.22,59.22,0,0,0,5.18,66,71.64,71.64,0,0,1,21.14,38.79Zm-16,67.08c-.11-.44-.22-.87-.33-1.31a68.89,68.89,0,0,1,.62-32.92,47.42,47.42,0,0,1,3.88-9.71A67.68,67.68,0,0,0,5,100.85a65.65,65.65,0,0,0,7.25,20A57.81,57.81,0,0,1,5.12,105.87Zm41.54,45.81C33.82,148,23.07,139.33,15.47,128.45A71.48,71.48,0,0,0,26.8,138.55,57.2,57.2,0,0,0,40,146.5a137.16,137.16,0,0,0,18.08,7.41A67.9,67.9,0,0,1,46.66,151.68Zm20.09,2.71c-3.5-.92-7-2-10.49-3.18A105.87,105.87,0,0,0,72,152.6a131.36,131.36,0,0,0,18.15-.88c-3.59.76-7.2,1.37-10.79,1.83A97.3,97.3,0,0,1,66.74,154.38Zm58.55-11.61c-14,12.17-32.3,16.59-50.27,13.48A139.47,139.47,0,0,0,108,148.81a63.73,63.73,0,0,0,32.83-24.94A75.09,75.09,0,0,1,125.3,142.77Zm21.63-38a58.33,58.33,0,0,1-10.71,21.86,60,60,0,0,0,5.29-8.93,74.32,74.32,0,0,0,6.81-27,66.45,66.45,0,0,0-6-32.9c1.08,1.7,2.12,3.43,3.07,5.21a68.33,68.33,0,0,1,3.09,13.31A76.33,76.33,0,0,1,146.92,104.76Z"/><path class="cls-2" d="M64.56,72.5c-2.83-3.49-6.06-6-10.66-6.33a6.73,6.73,0,0,0-1.26,0,8.46,8.46,0,0,0-.86.1c-4.22.71-6.89,3.69-7.93,7.74-.41,1.6,1.94,2.71,2.73,1.18A1.32,1.32,0,0,0,48,74.17c1.64-6.92,9.54-3.49,12.9-.24a1.4,1.4,0,0,0,1.3.42l.23.28C63.66,76.12,65.77,74,64.56,72.5Z"/><path class="cls-2" d="M112.64,70.73a15.83,15.83,0,0,0-12.92-4.9A8.55,8.55,0,0,0,92,73c-.12.23-.25.44-.34.69a1.19,1.19,0,0,0,.41,1.5c.58,1.37,3,1.21,2.87-.53a6.42,6.42,0,0,1,0-.94c1.33-2.12,4.13-2.82,6.39-3.5,3.87-1.16,6.31-.09,9.14,2.58C111.93,74.18,114,72.1,112.64,70.73Z"/><path class="cls-2" d="M48.94,86.68a14.61,14.61,0,0,0-3.61-1.23,1.49,1.49,0,0,0-.6-.31,37.16,37.16,0,0,0-10.38-1.27,1.52,1.52,0,0,0-1.3,2.26c1.06,2,3.17,2.21,5.22,2.58a52.37,52.37,0,0,0,9.91.76C49.6,89.46,50.33,87.36,48.94,86.68Z"/><path class="cls-2" d="M121.39,77.77c-.85.08-1.68.19-2.51.32a1.4,1.4,0,0,0-.83-.22,10.6,10.6,0,0,0-8.67,4.85,1.51,1.51,0,0,0,1.3,2.26,19.21,19.21,0,0,0,11.77-4.65A1.51,1.51,0,0,0,121.39,77.77Z"/><path class="cls-2" d="M119.39,92.37a12.81,12.81,0,0,0-7.3-3.94c-1.89-.31-2.7,2.58-.8,2.89l.41.08a58.74,58.74,0,0,1-31.23,12.24c-11.1,1-26.86-1-34.71-9.77a5,5,0,0,1,1-.11,1.5,1.5,0,0,0,0-3,7.92,7.92,0,0,0-7.15,4.59c-.78,1.75,1.8,3.28,2.59,1.51.07-.15.15-.29.22-.43.11,19.28,17.53,33,36.16,33.07A45.11,45.11,0,0,0,105.66,120c9-7.07,10.26-16.29,9.85-27a10.44,10.44,0,0,1,1.77,1.51C118.59,95.91,120.71,93.79,119.39,92.37ZM104.75,116.9c-7.12,6.16-16.92,9.29-26.19,9.62a33,33,0,0,1-25.23-10.64c8.06,4.51,18.44,5.36,27.32,4.94l.85-.06c.23.4.44.81.67,1.21a1.5,1.5,0,0,0,2.59-1.51v0a43.82,43.82,0,0,0,12.39-3.61l.42.93c.79,1.76,3.37.24,2.59-1.51l-.34-.76a38.86,38.86,0,0,0,11.91-10.1A21.13,21.13,0,0,1,104.75,116.9Zm7.39-13.79a1.65,1.65,0,0,0-2.51.12,33.8,33.8,0,0,1-11.06,9.51l-2.39-5.36c-.79-1.76-3.37-.24-2.59,1.51l2.31,5.18a45.08,45.08,0,0,1-12.76,3.47c-1.18-2.17-2.31-4.37-3.35-6.62-.81-1.75-3.4-.23-2.59,1.51s1.75,3.62,2.68,5.4l-1,.07c-10.65.5-23.82-1.58-30.88-10.32a1.6,1.6,0,0,0-.25-.25,28.35,28.35,0,0,1-2.3-9.52c8.51,7.68,22.69,9.39,33.5,8.94a60.46,60.46,0,0,0,33.61-12.24A48.51,48.51,0,0,1,112.14,103.11Z"/></g></g></svg>