<svg xmlns="http://www.w3.org/2000/svg" viewBox="0 0 167.15 167.72"><defs><style>.cls-1{fill:#daf98f;}.cls-2{fill:#343f04;}</style></defs><title>face10</title><g id="Capa_2" data-name="Capa 2"><g id="Capa_3" data-name="Capa 3"><ellipse class="cls-1" cx="83.37" cy="95.86" rx="71.33" ry="66.03"/></g><g id="Objects"><path class="cls-2" d="M164.29,77.78a68.6,68.6,0,0,0-12-22.53,75.85,75.85,0,0,0-14-14A17.81,17.81,0,0,1,156,43.67c1.56,1.15,3.05-1.45,1.51-2.59a20.44,20.44,0,0,0-22-1.83l-.28-.19A18.64,18.64,0,0,1,140,35.2c4.37-2.48,11.3-1.76,15.82-.22,1.84.63,2.62-2.27.8-2.89a26.94,26.94,0,0,0-16.33-.24,12.67,12.67,0,0,0-3.4,1.64c3.77-7.07,4.89-16.05,2.52-22.93-.63-1.82-3.53-1-2.89.8,2.64,7.65.39,18.67-5.36,25.21l-.53-.28c1.74-7.61-1.64-15.9-10.89-16.68-1.93-.16-1.91,2.84,0,3,7.09.6,9.15,6.6,8.07,12.28-16.1-7.55-34.74-9.06-52.22-6.59a95.8,95.8,0,0,0-14,1.81,73.89,73.89,0,0,0-17.18,5.11,53.66,53.66,0,0,0-14.3,10.2A106.05,106.05,0,0,0,18.6,57.89,68.2,68.2,0,0,0,5.49,86.71a55.3,55.3,0,0,0-.87,12.52,69.85,69.85,0,0,0,.86,18.31A56.9,56.9,0,0,0,17.8,143.86c6.88,8.22,16.29,14,26.21,17.83,13.73,5.26,29,6.6,43.91,5.41l1.76.2a71.84,71.84,0,0,0,33.66-4.21,65.06,65.06,0,0,0,25.5-18.34,61.25,61.25,0,0,0,8.45-13q1.56-2.51,2.91-5.14A66,66,0,0,0,164.29,77.78Zm-37-40.88a16.12,16.12,0,0,1-1,2.38,80.74,80.74,0,0,0-19.5-6.53c-.89-.28-1.78-.55-2.67-.81a96.38,96.38,0,0,0-12.74-2.76A84.5,84.5,0,0,1,127.26,36.91ZM36.42,42.59a48.12,48.12,0,0,1,17-8.5l.08,0q-3.73,1.49-7.32,3.3a103.17,103.17,0,0,0-13.26,8.43l-1.3,1C33.18,45.31,34.77,43.91,36.42,42.59Zm-19.79,24C22.25,55.7,32.18,48.27,42.35,41.93A84.67,84.67,0,0,1,70,31.35q2.5-.52,5.05-.92a81.66,81.66,0,0,1,9.3.08q2,.13,4,.36c-3.2,0-6.38.09-9.53.35A86.34,86.34,0,0,0,51.17,38c-10.12,4.44-20.6,10.72-27.46,19.52A76.49,76.49,0,0,0,14.95,72.9,85.44,85.44,0,0,0,9.6,87.51a64.86,64.86,0,0,0-1.9,19.91,51.51,51.51,0,0,1-1-8A89.58,89.58,0,0,1,16.63,66.56Zm46.16,97.73c-22-3.05-43.18-14.65-52-35.87a57.41,57.41,0,0,1-4-16.2,50.77,50.77,0,0,0,1.9,5.28c.35.83.73,1.66,1.13,2.47,5.73,19.9,22.92,33.23,42.29,39.25a90.06,90.06,0,0,0,13.58,3q5.62,1.78,11.39,3A109.24,109.24,0,0,1,62.79,164.29ZM17.35,131.9A75.29,75.29,0,0,0,27.6,142.41a96,96,0,0,0,23.14,14.16c-1.69-.56-3.37-1.16-5-1.83-10.53-4.25-20.2-11.16-26.8-20.48C18.36,133.49,17.85,132.7,17.35,131.9Zm112.23,26A64.06,64.06,0,0,1,100,165.59c3.25-.55,6.46-1.2,9.61-1.95a86.15,86.15,0,0,0,30.19-13.17c.79-.57,1.57-1.16,2.33-1.76A65.17,65.17,0,0,1,129.58,157.86Zm26-27.45a66.87,66.87,0,0,1-25.84,23.77c-10.15,5.26-21.46,8.14-32.74,9.73-3.27.46-6.58.82-9.89,1.06-3-.38-6.08-.9-9.09-1.55q3.47.15,6.95.15a108.65,108.65,0,0,0,33.59-4.92,64.52,64.52,0,0,0,41.1-39.37A64.62,64.62,0,0,1,155.6,130.41Zm3.69-16.94a60.79,60.79,0,0,1-16.51,28.46c-8.13,8-18.41,13.11-29.34,16.09-11.22,3.05-23,3.8-34.58,3.36a116.17,116.17,0,0,1-12.79-1.18q-3-1-5.95-2a104.7,104.7,0,0,1-29.57-16,67.48,67.48,0,0,1-18.69-22.73,57.6,57.6,0,0,1-2.2-14.59C9.41,94,12.3,83.71,16.74,74a74.15,74.15,0,0,1,9.34-16.08C30,53.06,35,49.4,40.26,46.21A87.54,87.54,0,0,1,68.37,34.78,96.87,96.87,0,0,1,99,33.64q3.79.44,7.55,1.21,3.36,1.08,6.64,2.36A96.26,96.26,0,0,1,125,42.81a1.72,1.72,0,0,0,1.15.65,76.13,76.13,0,0,1,23.53,20.62,67.22,67.22,0,0,1,11.11,28A62.58,62.58,0,0,1,159.3,113.47Zm3.68.16a67.6,67.6,0,0,0,.78-7.05,62.49,62.49,0,0,0-.83-13.74,64.76,64.76,0,0,0-3.74-16.43c-4.55-12.27-13-24-23.59-31.65q-.77-.54-1.56-1a19.36,19.36,0,0,1,2.22-1.5,74.63,74.63,0,0,1,20.57,23.43A64.44,64.44,0,0,1,165,100.36,59.89,59.89,0,0,1,163,113.63Z"/><path class="cls-2" d="M73,75c-1.7-5.73-6.45-10.76-12.59-11.57-6.51-.86-11.78,4.9-11.4,11.3a1.46,1.46,0,0,0,.78,1.24c-.18,1-.31,2-.41,3-.2,1.92,2.8,1.9,3,0C52.84,74,53.85,68.44,60,68.13c5.23-.27,8.32,3.24,10.11,7.64C70.78,77.51,73.53,76.87,73,75Z"/><path class="cls-2" d="M116.93,67.06A7.69,7.69,0,0,0,109,64c-6.11,1.13-9.64,8.49-9.52,14.06,0,1.93,3,1.94,3,0a12.49,12.49,0,0,1,.57-4,1.49,1.49,0,0,0,.88-.62c1.56-2.26,3.21-4.48,5.88-5.48a4.4,4.4,0,0,1,4.44.65,18.64,18.64,0,0,1,3.25,7.17,1.51,1.51,0,0,0,2.95-.4A11.63,11.63,0,0,0,116.93,67.06Z"/><path class="cls-2" d="M128.94,90.39c-1.71-2.68-3.61-5.31-6.76-6.34-1.84-.61-2.63,2.29-.8,2.89a5.5,5.5,0,0,1,1.2.59l-.76.18c-3.64.8-7.26,1.7-10.88,2.59-6.64,1.63-13.27,3.26-20,4.6-14,2.8-28.55,3.64-42.41-.32a1.52,1.52,0,0,0-.19-.71,1.54,1.54,0,0,0-2.05-.54,7.64,7.64,0,0,0-4,4.3,1.5,1.5,0,0,0,1,1.85,1.53,1.53,0,0,0,1.85-1,3.8,3.8,0,0,1,.23-.43,50.15,50.15,0,0,0,10.23,26.91c7.22,9.26,18.39,13.11,29.83,13,11.64-.11,24.65-4,32.09-13.34s8.08-22,8.24-33.45l.5.78C127.39,93.53,130,92,128.94,90.39Zm-12.82,31.14c-6.31,9.87-19.69,12.88-30.61,13.38-12.7.58-22.58-5.31-29-14.28a1.65,1.65,0,0,0,.32-.22,17.82,17.82,0,0,1,23-.25,1.52,1.52,0,0,0,2.36-.3c3.51-6.61,11-7.15,17.71-7.53,6.45-.36,12.88.08,18.57,3.39a1.54,1.54,0,0,0,.52.19A35.58,35.58,0,0,1,116.13,121.53Zm3.92-8.38h0c-7.22-4.2-15.33-4.16-23.44-3.59-6.23.43-12.48,2.15-16.07,7.37a20.88,20.88,0,0,0-25.6,1.24,47.35,47.35,0,0,1-6.48-20.49c11.17,3.08,22.84,3.23,34.3,1.63,6.72-.94,13.34-2.34,19.94-3.89,3.63-.85,7.25-1.77,10.87-2.66,2.06-.51,6.31-2.26,9.31-2.55C122.76,98,122.44,105.85,120,113.15Z"/><path class="cls-2" d="M131.69,77.1h-.13a1.89,1.89,0,0,0-.93-.78A6.25,6.25,0,0,0,124,77.61a1.53,1.53,0,0,0-.29.37A20.7,20.7,0,0,0,120,81.06a1.51,1.51,0,0,0,.66,2.51c4.42,1.08,8.29-1.18,11.79-3.66A1.51,1.51,0,0,0,131.69,77.1Z"/><path class="cls-2" d="M52.17,85.11a4.81,4.81,0,0,0-1.59-.7c-1.32-1-3.71-1.15-5.15-1.16a1.37,1.37,0,0,0-1.07.44,9.61,9.61,0,0,0-5.64,2.53,10.37,10.37,0,0,0-3.2,2.09,1.51,1.51,0,0,0,1.06,2.56l1.14-.1h0a17.17,17.17,0,0,0,11.48-1.45c1.6-.28,3.06-.82,3.63-2.53A1.52,1.52,0,0,0,52.17,85.11Z"/><path class="cls-2" d="M67.91,9.95a16.59,16.59,0,0,0-7.84,0c-.9-2.07-1.84-4.14-2.74-6.2C56.56,2,54,3.54,54.74,5.3c.85,1.94,1.72,3.88,2.57,5.82a9.24,9.24,0,0,0-4.38,5.7,1.5,1.5,0,0,0,2.89.8,6.44,6.44,0,0,1,2.65-3.74,57.94,57.94,0,0,1,3.28,10.26c.39,1.89,3.28,1.09,2.89-.8a59.4,59.4,0,0,0-3.41-10.62,13.67,13.67,0,0,1,5.88.11C69,13.27,69.8,10.38,67.91,9.95Z"/><path class="cls-2" d="M39.21,33.39,31.74,28a13.24,13.24,0,0,1,2.43-2.62c1.5-1.23-.64-3.34-2.12-2.12a15,15,0,0,0-2.75,3l-4.67-3.34c-1.58-1.13-3.07,1.48-1.51,2.59l4.71,3.37a15.68,15.68,0,0,0-1.31,5.79c-.06,1.94,2.94,1.93,3,0a12.28,12.28,0,0,1,.8-4L37.7,36C39.27,37.11,40.77,34.51,39.21,33.39Z"/><path class="cls-2" d="M13.79,42.63q-3-2.53-5.85-5.18c-1.42-1.31-3.55.81-2.12,2.12.69.64,1.4,1.27,2.1,1.9l-1,1.3L2.6,38.85C1.17,37.55-1,39.67.48,41l5.35,4.87A1.57,1.57,0,0,0,6,46a1.35,1.35,0,0,0,.24.19c1.08,1.1,2.68,3.13,4.15,3a1.53,1.53,0,0,0,1.5-1.5v-.11a1.49,1.49,0,0,0-.74-1.3L11,46.23a1.77,1.77,0,0,0-.65-.18,10.05,10.05,0,0,0-1.27-1.27l1-1.33,1.5,1.31C13.13,46,15.26,43.89,13.79,42.63Z"/><path class="cls-2" d="M22.5,34.76c-3.06-1.76-6.17-4-9.44-5.34a1.51,1.51,0,0,0-1.69.69c-.81,1.17-.08,2.56.29,3.76C12.29,35.93,13,38,13.74,40c.66,1.8,3.56,1,2.89-.8-.2-.55-.39-1.11-.58-1.66l2.4-1.64L21,37.35A1.5,1.5,0,0,0,22.5,34.76Zm-6.92-.55L15,34.6l-.38-1Z"/><path class="cls-2" d="M42.46,10.91a58.24,58.24,0,0,0-6.23-7.5c-1.36-1.38-3.48.74-2.12,2.12.86.88,1.69,1.79,2.49,2.71A24.76,24.76,0,0,1,34.77,10Q33.3,8.3,32,6.47C30.86,4.92,28.26,6.41,29.39,8s2.17,2.87,3.34,4.22a1.41,1.41,0,0,0,.19.88,1.62,1.62,0,0,0,1.26.75q.81.87,1.66,1.72A1.5,1.5,0,0,0,38,13.44c-.4-.4-.8-.81-1.19-1.23.61-.52,1.18-1.06,1.75-1.63q.7.91,1.36,1.85C41,14,43.58,12.5,42.46,10.91Z"/><path class="cls-2" d="M49.9,8,47.57,4.25a1.45,1.45,0,0,0-.18-.49A1.47,1.47,0,0,0,47,3.32L46.81,3C46,1.73,45.28-.44,43.4.08c-1.49.41-1.74,2.14-1.77,3.43,0,.74,0,1.48,0,2.21a1.48,1.48,0,0,0,.15,2.56q.07.75.15,1.5c.22,1.9,3.22,1.92,3,0-.1-.84-.17-1.69-.22-2.53l.83-.56,1.76,2.86C48.32,11.19,50.91,9.68,49.9,8Z"/><path class="cls-2" d="M89.09,18.07,84.48,11c-1-1.62-3.65-.11-2.59,1.51l1.43,2.2a12.3,12.3,0,0,0-1.62,1.39c-.56-1-1.08-2-1.55-3.06-.8-1.76-3.38-.23-2.59,1.51a41.22,41.22,0,0,0,2.21,4.2A1.51,1.51,0,0,0,81,20.64c.24.35.47.71.72,1.05,1.12,1.55,3.73.06,2.59-1.51-.33-.46-.65-.94-1-1.41A9,9,0,0,1,85,17.22l1.54,2.37C87.54,21.2,90.14,19.7,89.09,18.07Z"/><path class="cls-2" d="M97.83,14.31l-1.76-1.82c.67-1.21-.62-3-2-2.06h0l-3.84-4a1.51,1.51,0,0,0-2.56,1.06,42.8,42.8,0,0,0,1.76,10.64c.55,1.85,3.45,1.06,2.89-.8-.18-.59-.33-1.18-.48-1.78l1.83-1.26,2,2.09C97.06,17.82,99.17,15.7,97.83,14.31Z"/></g></g></svg>