<svg xmlns="http://www.w3.org/2000/svg" viewBox="0 0 152.8 150.81"><defs><style>.cls-1{fill:#343f04;}</style></defs><title>face-1</title><g id="Capa_2" data-name="Capa 2"><g id="Objects"><path class="cls-1" d="M152.66,75.1c-.43-6-1.17-12.21-3.59-17.8-.58-1.33-1.21-2.64-1.89-3.92A69.47,69.47,0,0,0,137,34.29a71,71,0,0,0-8-9c.65.15,1.18.29,1.51.37a23.13,23.13,0,0,1,10,6c1.39,1.35,3.51-.77,2.12-2.12a27.83,27.83,0,0,0-14-7.39,30.25,30.25,0,0,0-4.33-.59l-.24-.16c8.11-2.06,16.9,3.65,22.83,9.41,1.39,1.35,3.51-.77,2.12-2.12-7.48-7.27-18.49-13.48-28.26-9.27l-.29-.17c6.43-6,18-8.3,24.92-3.56,1.6,1.09,3.1-1.51,1.51-2.59-8.31-5.67-22.12-2.75-29.29,4.71l-.2-.1c3.31-8,12.89-11.83,20.8-14.67,1.81-.65,1-3.55-.8-2.89-9,3.22-18.94,7.54-22.68,16.35-1.53-.67-3.08-1.31-4.61-2a57.15,57.15,0,0,0-16.59-4.25,62.55,62.55,0,0,0-11.67.12,85.71,85.71,0,0,0-35,2.28A57.69,57.69,0,0,0,21.25,27,73.94,73.94,0,0,0,4.57,52.68,69.75,69.75,0,0,0,3.41,99c.11.4.21.8.32,1.2,5.71,20.07,21.08,37.95,41.14,44.47A71.24,71.24,0,0,0,67.12,148a76.39,76.39,0,0,0,21.4,2.79,60.39,60.39,0,0,0,25.92-6.73c10.94-5.61,19.82-14.62,26.42-24.9A72.51,72.51,0,0,0,152.66,75.1ZM126,25.38a57.51,57.51,0,0,1,9.14,10q1.46,1.94,2.77,4a58.3,58.3,0,0,0-14.48-12.72c-.94-.64-1.89-1.25-2.84-1.85a9.54,9.54,0,0,1,4.26-.22C125.26,24.8,125.66,25.07,126,25.38ZM114.65,24a1.7,1.7,0,0,0,1,.52l0,0a1.69,1.69,0,0,0,.95.52l.56.3a1.67,1.67,0,0,0,1.49.81c.51.28,1,.55,1.52.83s1.16.67,1.73,1c1.58,1.11,3.13,2.25,4.62,3.41,5.75,4.45,9.58,10.24,12.87,16.65a65.32,65.32,0,0,1,6.76,34.58A71,71,0,0,1,139,109.42c-8.48,16.92-24.51,27.61-43,30.65-18.33,3-38.87,3.2-56.15-4.57a92.5,92.5,0,0,1-13.55-8.67C12.67,114.75,5.36,95.64,6,77.67c.37-10.35,3.17-21.24,8.58-30.11C20.45,37.91,30,30.68,39.87,25.45a77.88,77.88,0,0,1,35.44-8.84c10.08-.17,20.73,0,30.46,3.09,2.61,1.15,5.17,2.39,7.69,3.69a1.36,1.36,0,0,0,1,.53ZM114,18.43a19.21,19.21,0,0,0-.51,2.18,50.91,50.91,0,0,0-7.12-2.83,108.23,108.23,0,0,0-15.72-5.61C98.89,12.45,106.51,15.12,114,18.43ZM81.71,12.49q2.25.33,4.48.77a81.32,81.32,0,0,1,7.9,2c-2.26-.26-4.54-.43-6.84-.54C75.6,14.21,64.2,14.54,53,17.82l.22-.08a113.45,113.45,0,0,1,19-4.08C75.37,13.2,78.54,12.77,81.71,12.49ZM21.14,30.17c7.13-7.75,16.22-12.64,26.29-15.5a81.92,81.92,0,0,1,24.19-3c-10.3,1.55-20.34,3.88-29.8,8.52A84,84,0,0,0,15.65,40.47,59.22,59.22,0,0,0,5.18,57.4,71.64,71.64,0,0,1,21.14,30.17Zm-16,67.08c-.11-.44-.22-.87-.33-1.31A68.89,68.89,0,0,1,5.42,63a47.42,47.42,0,0,1,3.88-9.71A67.68,67.68,0,0,0,5,92.22a65.65,65.65,0,0,0,7.25,20A57.81,57.81,0,0,1,5.12,97.25Zm41.54,45.81c-12.84-3.71-23.58-12.34-31.19-23.23A71.48,71.48,0,0,0,26.8,129.93,57.2,57.2,0,0,0,40,137.88a137.15,137.15,0,0,0,18.08,7.41A67.91,67.91,0,0,1,46.66,143.05Zm20.09,2.71c-3.5-.92-7-2-10.49-3.18A105.87,105.87,0,0,0,72,144a131.33,131.33,0,0,0,18.15-.88c-3.59.76-7.2,1.37-10.79,1.83A97.33,97.33,0,0,1,66.74,145.76Zm58.55-11.61c-14,12.17-32.3,16.59-50.27,13.48A139.47,139.47,0,0,0,108,140.18a63.73,63.73,0,0,0,32.83-24.94A75.1,75.1,0,0,1,125.3,134.15Zm21.63-38A58.33,58.33,0,0,1,136.21,118a60.05,60.05,0,0,0,5.29-8.93,74.32,74.32,0,0,0,6.81-27,66.45,66.45,0,0,0-6-32.9c1.08,1.7,2.12,3.43,3.07,5.21a68.32,68.32,0,0,1,3.09,13.3A76.33,76.33,0,0,1,146.92,96.14Z"/><path class="cls-1" d="M72.31,60a20.06,20.06,0,0,1-10.21,3.76c-1.92.15-1.93,3.15,0,3a24,24,0,0,0,5.83-1.17,16.16,16.16,0,0,0,.2,6.82,5.33,5.33,0,0,0,2.08,4,1.51,1.51,0,0,0,2.2-.9c.14-.43.26-.87.36-1.3l0-.08a19.25,19.25,0,0,0,.26-7.53,9.07,9.07,0,0,0-1-2.83c.6-.35,1.2-.72,1.78-1.13C75.39,61.51,73.9,58.91,72.31,60Z"/><path class="cls-1" d="M119.71,63.81a34.15,34.15,0,0,1-6.92-1.61l-.06,0-.08,0a35.11,35.11,0,0,1-3.54-1.42c-1.74-.82-3.26,1.76-1.51,2.59,1,.49,2.07.92,3.11,1.31-.45,3.7-1.06,9,2.57,11a1.54,1.54,0,0,0,1.93-.38,1.75,1.75,0,0,0,.92-.94c.93-2.18.24-4.85-.24-7.08-.08-.37-.17-.75-.27-1.12a40.37,40.37,0,0,0,4.09.72C121.63,67,121.6,64,119.71,63.81Z"/><path class="cls-1" d="M115.4,116.12c-3.57-14.76-6.46-18.43-17.76-21.46-7.49-2-15.05-.83-20.79,4.53-6.33,5.92-10.22,15.22-13,23.24-.64,1.83,2.26,2.61,2.89.8a67,67,0,0,1,11.18-20.79c5.53-6.7,14.34-7.12,21.69-4.13,8.3,3.38,9.9,6.17,12.9,18.6C113,118.8,115.86,118,115.4,116.12Z"/><path class="cls-1" d="M69.92,82.36a1.17,1.17,0,0,0-1.26-1.07,1.53,1.53,0,0,0-1.29.26,1.48,1.48,0,0,0-.42.32C65,84,60.42,89.93,63.8,92.63c1.67,1.33,3.67.26,4.67-1.29a5.61,5.61,0,0,0,.75-2.1,1.28,1.28,0,0,0,.41-.8,24.69,24.69,0,0,0,.28-4.83A3.43,3.43,0,0,0,69.92,82.36Z"/><path class="cls-1" d="M124.86,85.63a12.17,12.17,0,0,0-3.35-7,1.33,1.33,0,0,0-.89-.43,1.65,1.65,0,0,0-2.55,1.15c-.34,3.09-1.12,13.43,4.57,12.08C125,90.86,125,87.43,124.86,85.63Z"/></g></g></svg>